<?xml version="1.0" standalone="no"?>
<svg xmlns:xlink="http://www.w3.org/1999/xlink" id="wave" style="transform:rotate(0deg); transition: 0.3s" viewBox="0 0 1440 100" version="1.1" xmlns="http://www.w3.org/2000/svg"><defs><linearGradient id="sw-gradient-0" x1="0" x2="0" y1="1" y2="0"><stop stop-color="rgba(247, 247, 184, 1)" offset="0%"/><stop stop-color="rgba(255, 179, 11, 1)" offset="100%"/></linearGradient></defs><path style="transform:translate(0, 0px); opacity:1" fill="url(#sw-gradient-0)" d="M0,50L120,55C240,60,480,70,720,65C960,60,1200,40,1440,40C1680,40,1920,60,2160,70C2400,80,2640,80,2880,76.7C3120,73,3360,67,3600,58.3C3840,50,4080,40,4320,33.3C4560,27,4800,23,5040,23.3C5280,23,5520,27,5760,36.7C6000,47,6240,63,6480,73.3C6720,83,6960,87,7200,75C7440,63,7680,37,7920,21.7C8160,7,8400,3,8640,5C8880,7,9120,13,9360,16.7C9600,20,9840,20,10080,28.3C10320,37,10560,53,10800,55C11040,57,11280,43,11520,36.7C11760,30,12000,30,12240,31.7C12480,33,12720,37,12960,36.7C13200,37,13440,33,13680,33.3C13920,33,14160,37,14400,40C14640,43,14880,47,15120,53.3C15360,60,15600,70,15840,65C16080,60,16320,40,16560,36.7C16800,33,17040,47,17160,53.3L17280,60L17280,100L17160,100C17040,100,16800,100,16560,100C16320,100,16080,100,15840,100C15600,100,15360,100,15120,100C14880,100,14640,100,14400,100C14160,100,13920,100,13680,100C13440,100,13200,100,12960,100C12720,100,12480,100,12240,100C12000,100,11760,100,11520,100C11280,100,11040,100,10800,100C10560,100,10320,100,10080,100C9840,100,9600,100,9360,100C9120,100,8880,100,8640,100C8400,100,8160,100,7920,100C7680,100,7440,100,7200,100C6960,100,6720,100,6480,100C6240,100,6000,100,5760,100C5520,100,5280,100,5040,100C4800,100,4560,100,4320,100C4080,100,3840,100,3600,100C3360,100,3120,100,2880,100C2640,100,2400,100,2160,100C1920,100,1680,100,1440,100C1200,100,960,100,720,100C480,100,240,100,120,100L0,100Z"/></svg>