<?xml version="1.0" standalone="no"?>
<svg xmlns:xlink="http://www.w3.org/1999/xlink" id="wave" style="transform:rotate(0deg); transition: 0.3s" viewBox="0 0 1440 100" version="1.1" xmlns="http://www.w3.org/2000/svg"><defs><linearGradient id="sw-gradient-0" x1="0" x2="0" y1="1" y2="0"><stop stop-color="rgba(59, 89, 152, 1)" offset="0%" data-darkreader-inline-stopcolor="" style="--darkreader-inline-stopcolor:#2f477a;"/><stop stop-color="rgba(59, 89, 152, 1)" offset="100%" data-darkreader-inline-stopcolor="" style="--darkreader-inline-stopcolor:#2f477a;"/></linearGradient></defs><path style="transform:translate(0, 0px); opacity:1" fill="url(#sw-gradient-0)" d="M0,70L21.8,66.7C43.6,63,87,57,131,58.3C174.5,60,218,70,262,76.7C305.5,83,349,87,393,78.3C436.4,70,480,50,524,46.7C567.3,43,611,57,655,58.3C698.2,60,742,50,785,45C829.1,40,873,40,916,48.3C960,57,1004,73,1047,73.3C1090.9,73,1135,57,1178,48.3C1221.8,40,1265,40,1309,48.3C1352.7,57,1396,73,1440,78.3C1483.6,83,1527,77,1571,66.7C1614.5,57,1658,43,1702,41.7C1745.5,40,1789,50,1833,45C1876.4,40,1920,20,1964,11.7C2007.3,3,2051,7,2095,18.3C2138.2,30,2182,50,2225,61.7C2269.1,73,2313,77,2356,76.7C2400,77,2444,73,2487,70C2530.9,67,2575,63,2618,51.7C2661.8,40,2705,20,2749,11.7C2792.7,3,2836,7,2880,15C2923.6,23,2967,37,3011,45C3054.5,53,3098,57,3120,58.3L3141.8,60L3141.8,100L3120,100C3098.2,100,3055,100,3011,100C2967.3,100,2924,100,2880,100C2836.4,100,2793,100,2749,100C2705.5,100,2662,100,2618,100C2574.5,100,2531,100,2487,100C2443.6,100,2400,100,2356,100C2312.7,100,2269,100,2225,100C2181.8,100,2138,100,2095,100C2050.9,100,2007,100,1964,100C1920,100,1876,100,1833,100C1789.1,100,1745,100,1702,100C1658.2,100,1615,100,1571,100C1527.3,100,1484,100,1440,100C1396.4,100,1353,100,1309,100C1265.5,100,1222,100,1178,100C1134.5,100,1091,100,1047,100C1003.6,100,960,100,916,100C872.7,100,829,100,785,100C741.8,100,698,100,655,100C610.9,100,567,100,524,100C480,100,436,100,393,100C349.1,100,305,100,262,100C218.2,100,175,100,131,100C87.3,100,44,100,22,100L0,100Z"/></svg>