<?xml version="1.0" standalone="no"?>
<svg xmlns:xlink="http://www.w3.org/1999/xlink" id="wave" style="transform:rotate(0deg); transition: 0.3s" viewBox="0 0 1440 100" version="1.1" xmlns="http://www.w3.org/2000/svg"><defs><linearGradient id="sw-gradient-0" x1="0" x2="0" y1="1" y2="0"><stop stop-color="rgba(59, 89, 152, 1)" offset="0%"/><stop stop-color="rgba(59, 89, 152, 1)" offset="100%"/></linearGradient></defs><path style="transform:translate(0, 0px); opacity:1" fill="url(#sw-gradient-0)" d="M0,40L12.6,45C25.3,50,51,60,76,65C101.1,70,126,70,152,66.7C176.8,63,202,57,227,48.3C252.6,40,278,30,303,25C328.4,20,354,20,379,16.7C404.2,13,429,7,455,8.3C480,10,505,20,531,33.3C555.8,47,581,63,606,60C631.6,57,657,33,682,33.3C707.4,33,733,57,758,61.7C783.2,67,808,53,834,48.3C858.9,43,884,47,909,48.3C934.7,50,960,50,985,50C1010.5,50,1036,50,1061,41.7C1086.3,33,1112,17,1137,10C1162.1,3,1187,7,1213,18.3C1237.9,30,1263,50,1288,50C1313.7,50,1339,30,1364,26.7C1389.5,23,1415,37,1440,43.3C1465.3,50,1491,50,1516,56.7C1541.1,63,1566,77,1592,73.3C1616.8,70,1642,50,1667,48.3C1692.6,47,1718,63,1743,65C1768.4,67,1794,53,1806,46.7L1818.9,40L1818.9,100L1806.3,100C1793.7,100,1768,100,1743,100C1717.9,100,1693,100,1667,100C1642.1,100,1617,100,1592,100C1566.3,100,1541,100,1516,100C1490.5,100,1465,100,1440,100C1414.7,100,1389,100,1364,100C1338.9,100,1314,100,1288,100C1263.2,100,1238,100,1213,100C1187.4,100,1162,100,1137,100C1111.6,100,1086,100,1061,100C1035.8,100,1011,100,985,100C960,100,935,100,909,100C884.2,100,859,100,834,100C808.4,100,783,100,758,100C732.6,100,707,100,682,100C656.8,100,632,100,606,100C581.1,100,556,100,531,100C505.3,100,480,100,455,100C429.5,100,404,100,379,100C353.7,100,328,100,303,100C277.9,100,253,100,227,100C202.1,100,177,100,152,100C126.3,100,101,100,76,100C50.5,100,25,100,13,100L0,100Z"/></svg>